<svg xmlns="http://www.w3.org/2000/svg"><symbol viewBox="0 0 256 256" id="icon-circle"> <path d="M128,240c-61.757,0-112-50.243-112-112S66.243,16,128,16s112,50.243,112,112S189.757,240,128,240z M128,48
	c-44.112,0-80,35.888-80,80s35.888,80,80,80s80-35.888,80-80S172.112,48,128,48z"/> </symbol><symbol viewBox="0 0 256 256" id="icon-marker-glow"> <circle opacity="0.5" fill="#FFFF00" cx="128" cy="128" r="128"/> <path d="M128,32c-33.138,0-60,26.862-60,60c0,60,60,132,60,132s60-72,60-132C188,58.862,161.138,32,128,32z"/> <circle fill="#FFFFFF" cx="128" cy="92" r="36.75"/> <circle cx="128" cy="92" r="23.25"/> </symbol><symbol viewBox="-96 -96 256 256" id="icon-marker"> <path d="M32-96c-44.184,0-80,35.816-80,80c0,80,80,176,80,176s80-96,80-176C112-60.184,76.184-96,32-96z M32,33
	C4.939,33-17,11.061-17-16S4.939-65,32-65c27.063,0,49,21.939,49,49S59.063,33,32,33z M1-16c0-17.121,13.881-31,31-31
	c17.117,0,31,13.879,31,31S49.117,15,32,15C14.881,15,1,1.121,1-16z"/> </symbol><symbol viewBox="0 0 256 256" id="icon-rectangle"> <path d="M240,240H16V16h224V240z M48,208h160V48H48V208z"/> </symbol></svg>