<?xml version="1.0" encoding="utf-8"?>
<!-- Generator: Adobe Illustrator 16.0.0, SVG Export Plug-In . SVG Version: 6.00 Build 0)  -->
<!DOCTYPE svg PUBLIC "-//W3C//DTD SVG 1.1//EN" "http://www.w3.org/Graphics/SVG/1.1/DTD/svg11.dtd">
<svg version="1.1" id="Layer_1" xmlns="http://www.w3.org/2000/svg" xmlns:xlink="http://www.w3.org/1999/xlink" x="0px" y="0px"
	 width="256px" height="256px" viewBox="0 0 256 256" enable-background="new 0 0 256 256" xml:space="preserve">
<path d="M250.742,204.468L135.6,105.779c5.359-10.076,8.402-21.572,8.402-33.779c0-39.764-32.236-72-72.001-72
	c-7.271,0-14.293,1.084-20.912,3.088l41.596,41.596c6.226,6.225,6.226,16.404,0,22.629L67.313,92.684
	c-6.225,6.225-16.404,6.225-22.629,0L3.088,51.088C1.084,57.707,0,64.729,0,72c0,39.764,32.237,71.999,72.001,71.999
	c12.207,0,23.704-3.043,33.78-8.406l98.69,115.141c5.727,6.68,15.505,7.059,21.724,0.836l25.375-25.371
	c6.219-6.223,5.844-16-0.836-21.723L250.742,204.468z"/>
</svg>
