<?xml version="1.0" encoding="utf-8"?>
<!-- Generator: Adobe Illustrator 16.0.0, SVG Export Plug-In . SVG Version: 6.00 Build 0)  -->
<!DOCTYPE svg PUBLIC "-//W3C//DTD SVG 1.1//EN" "http://www.w3.org/Graphics/SVG/1.1/DTD/svg11.dtd">
<svg version="1.1" id="Layer_1" xmlns="http://www.w3.org/2000/svg" xmlns:xlink="http://www.w3.org/1999/xlink" x="0px" y="0px"
	 width="256px" height="256px" viewBox="-96 -96 256 256" enable-background="new -96 -96 256 256" xml:space="preserve">
<path d="M32-96c-44.184,0-80,35.816-80,80c0,80,80,176,80,176s80-96,80-176C112-60.184,76.184-96,32-96z M32,33
	C4.939,33-17,11.061-17-16S4.939-65,32-65c27.063,0,49,21.939,49,49S59.063,33,32,33z M1-16c0-17.121,13.881-31,31-31
	c17.117,0,31,13.879,31,31S49.117,15,32,15C14.881,15,1,1.121,1-16z"/>
</svg>
