<?xml version="1.0" encoding="utf-8"?>
<!-- Generator: Adobe Illustrator 16.0.0, SVG Export Plug-In . SVG Version: 6.00 Build 0)  -->
<!DOCTYPE svg PUBLIC "-//W3C//DTD SVG 1.1//EN" "http://www.w3.org/Graphics/SVG/1.1/DTD/svg11.dtd">
<svg version="1.1" id="Layer_1" xmlns="http://www.w3.org/2000/svg" xmlns:xlink="http://www.w3.org/1999/xlink" x="0px" y="0px"
	 width="256px" height="256px" viewBox="0 0 256 256" enable-background="new 0 0 256 256" xml:space="preserve">
<path d="M128,48C72.172,48,23.779,80.512,0,128c23.779,47.488,72.172,80,128,80s104.219-32.512,128-80
	C232.219,80.512,183.828,48,128,48z M191.109,90.426c15.042,9.593,27.789,22.444,37.362,37.574
	c-9.574,15.133-22.32,27.979-37.362,37.578C172.211,177.633,150.391,184,128,184c-22.388,0-44.216-6.37-63.112-18.422
	c-15.04-9.594-27.784-22.445-37.357-37.578c9.572-15.134,22.32-27.98,37.361-37.574c0.977-0.622,1.967-1.231,2.963-1.822
	c-2.488,6.831-3.853,14.204-3.853,21.9c0,35.344,28.652,64,64,64c35.349,0,64-28.656,64-64c0-7.692-1.362-15.069-3.852-21.9
	c0.994,0.595,1.984,1.2,2.965,1.822l0,0H191.109z M128,104c0,13.255-10.745,24-24,24c-13.254,0-24-10.745-24-24
	c0-13.254,10.746-24,24-24C117.255,80,128,90.746,128,104z"/>
</svg>
