<svg xmlns="http://www.w3.org/2000/svg"><symbol viewBox="0 0 256 256" id="icon-circle"> <path d="M128,240c-61.757,0-112-50.243-112-112S66.243,16,128,16s112,50.243,112,112S189.757,240,128,240z M128,48
	c-44.112,0-80,35.888-80,80s35.888,80,80,80s80-35.888,80-80S172.112,48,128,48z"/> </symbol><symbol viewBox="0 0 256 256" id="icon-eye"> <path d="M128,48C72.172,48,23.779,80.512,0,128c23.779,47.488,72.172,80,128,80s104.219-32.512,128-80
	C232.219,80.512,183.828,48,128,48z M191.109,90.426c15.042,9.593,27.789,22.444,37.362,37.574
	c-9.574,15.133-22.32,27.979-37.362,37.578C172.211,177.633,150.391,184,128,184c-22.388,0-44.216-6.37-63.112-18.422
	c-15.04-9.594-27.784-22.445-37.357-37.578c9.572-15.134,22.32-27.98,37.361-37.574c0.977-0.622,1.967-1.231,2.963-1.822
	c-2.488,6.831-3.853,14.204-3.853,21.9c0,35.344,28.652,64,64,64c35.349,0,64-28.656,64-64c0-7.692-1.362-15.069-3.852-21.9
	c0.994,0.595,1.984,1.2,2.965,1.822l0,0H191.109z M128,104c0,13.255-10.745,24-24,24c-13.254,0-24-10.745-24-24
	c0-13.254,10.746-24,24-24C117.255,80,128,90.746,128,104z"/> </symbol><symbol viewBox="0 0 256 256" id="icon-marker-glow"> <circle opacity="0.5" fill="#FFFF00" cx="128" cy="128" r="128"/> <path d="M128,32c-33.138,0-60,26.862-60,60c0,60,60,132,60,132s60-72,60-132C188,58.862,161.138,32,128,32z"/> <circle fill="#FFFFFF" cx="128" cy="92" r="36.75"/> <circle cx="128" cy="92" r="23.25"/> </symbol><symbol viewBox="-96 -96 256 256" id="icon-marker"> <path d="M32-96c-44.184,0-80,35.816-80,80c0,80,80,176,80,176s80-96,80-176C112-60.184,76.184-96,32-96z M32,33
	C4.939,33-17,11.061-17-16S4.939-65,32-65c27.063,0,49,21.939,49,49S59.063,33,32,33z M1-16c0-17.121,13.881-31,31-31
	c17.117,0,31,13.879,31,31S49.117,15,32,15C14.881,15,1,1.121,1-16z"/> </symbol><symbol viewBox="0 0 256 256" id="icon-rectangle"> <path d="M240,240H16V16h224V240z M48,208h160V48H48V208z"/> </symbol></svg>