<svg xmlns="http://www.w3.org/2000/svg"><symbol viewBox="0 0 256 256" id="icon-circle"> <path d="M128,240c-61.757,0-112-50.243-112-112S66.243,16,128,16s112,50.243,112,112S189.757,240,128,240z M128,48
	c-44.112,0-80,35.888-80,80s35.888,80,80,80s80-35.888,80-80S172.112,48,128,48z"/> </symbol><symbol viewBox="0 0 256 256" id="icon-marker-glow"> <circle opacity="0.5" fill="#FFFF00" cx="128" cy="128" r="128"/> <path d="M128,32c-33.138,0-60,26.862-60,60c0,60,60,132,60,132s60-72,60-132C188,58.862,161.138,32,128,32z"/> <circle fill="#FFFFFF" cx="128" cy="92" r="36.75"/> <circle cx="128" cy="92" r="23.25"/> </symbol><symbol viewBox="-96 -96 256 256" id="icon-marker"> <path d="M32-96c-44.184,0-80,35.816-80,80c0,80,80,176,80,176s80-96,80-176C112-60.184,76.184-96,32-96z M32,33
	C4.939,33-17,11.061-17-16S4.939-65,32-65c27.063,0,49,21.939,49,49S59.063,33,32,33z M1-16c0-17.121,13.881-31,31-31
	c17.117,0,31,13.879,31,31S49.117,15,32,15C14.881,15,1,1.121,1-16z"/> </symbol><symbol viewBox="0 0 256 256" id="icon-rectangle"> <path d="M240,240H16V16h224V240z M48,208h160V48H48V208z"/> </symbol><symbol viewBox="0 0 256 256" id="icon-wrench"> <path d="M250.742,204.468L135.6,105.779c5.359-10.076,8.402-21.572,8.402-33.779c0-39.764-32.236-72-72.001-72
	c-7.271,0-14.293,1.084-20.912,3.088l41.596,41.596c6.226,6.225,6.226,16.404,0,22.629L67.313,92.684
	c-6.225,6.225-16.404,6.225-22.629,0L3.088,51.088C1.084,57.707,0,64.729,0,72c0,39.764,32.237,71.999,72.001,71.999
	c12.207,0,23.704-3.043,33.78-8.406l98.69,115.141c5.727,6.68,15.505,7.059,21.724,0.836l25.375-25.371
	c6.219-6.223,5.844-16-0.836-21.723L250.742,204.468z"/> </symbol></svg>